<svg width="512" height="512" xmlns="http://www.w3.org/2000/svg">

 <g>
  <title>background</title>
  <rect fill="none" id="canvas_background" height="402" width="582" y="-1" x="-1"/>
 </g>
 <g>
  <title>Layer 1</title>
  <path id="svg_1" fill="#77b3d4" d="m256,512c-141.400002,0 -256,-114.600006 -256,-256c0,-141.400002 114.599998,-256 256,-256c141.399994,0 256,114.599998 256,256c0,141.399994 -114.600006,256 -256,256z"/>
  <path id="svg_2" fill="#70aac9" d="m256,509.766144c141.399994,0 256,-114.600006 256,-256c0,-68.199997 -26.700012,-130 -70.100006,-175.899986l-364.199997,359.599998c46.100006,44.699982 109,72.299988 178.300003,72.299988z"/>
  <path id="svg_3" fill="#FCFDFD" d="m282.600006,212.5c0,8 0,16 0,24.100006c0,1.299988 0,2.599991 0.200012,3.899994c0.699982,5.199997 1.199982,11.100006 6.899994,13.100006c5.200012,1.799988 8.600006,-2.900009 11.600006,-6.300003c14.5,-16.400009 24.699982,-35.400009 33.399994,-55.300003c1.799988,-4.100006 3.399994,-8.199997 5.200012,-12.399994c1.899994,-4.400009 5,-6.600006 10,-6.5c17.399994,0.099991 34.699982,0 52.099976,0.099991c1.800018,0 3.700012,0.300003 5.5,0.800003c7,1.699997 8.800018,4.800003 6.800018,11.800003c-2.600006,9.5 -7.899994,17.599991 -13.300018,25.699997c-9.199982,13.800003 -19.799988,26.600006 -29.599976,40c-11.700012,16 -11.400024,20 3,33.5c12,11.200012 24,22.399994 33.699982,35.799988c2.399994,3.300018 4.600006,6.800018 6.100006,10.600006c2.200012,5.899994 0.5,10.300018 -5.100006,12.899994c-3.199982,1.5 -6.600006,2.300018 -10.299988,2.300018c-14.600006,-0.100006 -29.100006,0.100006 -43.700012,0c-9.799988,0 -17.600006,-4.700012 -24.199982,-11.300018c-6.100006,-6 -11.600037,-12.599976 -17.400024,-18.899994c-3.199982,-3.399994 -6.299988,-6.899994 -10.299988,-9.399994c-6.299988,-4 -11.799988,-2.700012 -15.399994,3.899994c-3.700012,6.700012 -4.5,14.200012 -4.800018,21.600006c-0.5,10.799988 -3.899994,13.600006 -14.899994,14.200012c-23.800003,1.199982 -46.400009,-2.700012 -67.199997,-14.800018c-17.800003,-10.399994 -31.5,-24.899994 -43.600006,-41.199982c-23.899994,-32.400024 -42.199989,-68.000015 -58.699989,-104.700012c-3.700005,-8.199997 -0.900002,-12.600006 8.199997,-12.800003c14.900002,-0.300003 29.900002,-0.199997 44.799995,0c6.100006,0.100006 10.400009,3.100006 12.800003,9c8.100006,19.700012 17.800003,38.600006 30,56.100006c3.600006,5.199997 7.300003,10.5 12.600006,14.099991c5.399994,3.700012 9.399994,2.400009 12,-3.599991c1.799988,-4.400009 2.399994,-9 2.799988,-13.600006c1.100006,-13.199997 1,-26.5 -0.699997,-39.599991c-1.199997,-8.899994 -6,-14.800003 -15,-16.5c-4.599991,-0.900009 -3.599991,-2.600006 -1.5,-5c3.699997,-4.300003 8.800003,-6.400009 14.199997,-7c17.400009,-2.200012 34.900009,-2.900009 52.300003,0.5c8.300018,1.599991 10.700012,4.800003 12,13.199997c1.5,10.5 -0.899994,21.099991 -0.5,31.699997z"/>
  <path id="svg_4" fill="#F1F2F2" d="m334.700012,192c-8.700012,19.899994 -19,38.899994 -33.399994,55.300003c-3,3.399994 -6.300018,8.099991 -11.600006,6.300003c-5.700012,-2 -6.200012,-7.800003 -6.899994,-13.100006c-0.100006,-1 -0.200012,-2.100006 -0.200012,-3.100006l-90.199997,89.100006c2.699997,1.899994 5.5,3.700012 8.399994,5.5c20.800003,12.200012 43.400009,16 67.199997,14.799988c11,-0.5 14.400024,-3.399994 14.900024,-14.199982c0.299988,-7.5 1.199982,-14.899994 4.799988,-21.600006c3.600006,-6.600006 9.100006,-7.899994 15.399994,-3.899994c4,2.5 7.100006,6 10.300018,9.399994c5.799988,6.299988 11.299988,12.899994 17.399994,18.899994c6.600006,6.600006 14.399994,11.300018 24.199982,11.300018c14.600006,0 29.100006,-0.100006 43.700012,0c3.600006,0 7,-0.800018 10.299988,-2.300018c5.600006,-2.600006 7.300018,-7.100006 5.100006,-12.899994c-1.399994,-3.899994 -3.699982,-7.299988 -6.100006,-10.600006c-9.599976,-13.399994 -21.699982,-24.600006 -33.699982,-35.799988c-14.399994,-13.5 -14.800018,-17.5 -3,-33.5c9.799988,-13.400009 20.5,-26.200012 29.600006,-40c5.399994,-8.100006 10.699982,-16.200012 13.299988,-25.700012c2,-7 0.100006,-10.199997 -6.799988,-11.799988c-1.800018,-0.400009 -3.700012,-0.800003 -5.5,-0.800003c-17.400024,-0.100006 -34.700012,0.099991 -52.100006,-0.100006c-0.800018,0 -1.600006,0.100006 -2.300018,0.199997l-8.5,8.400009c-1.399994,3.300003 -2.799988,6.800003 -4.299988,10.199997z"/>
 </g>
</svg>