<svg width="256" height="256" xmlns="http://www.w3.org/2000/svg">

 <g>
  <title>background</title>
  <rect fill="none" id="canvas_background" height="402" width="582" y="-1" x="-1"/>
 </g>
 <g>
  <title>Layer 1</title>
  <ellipse ry="126.934612" rx="126.934612" id="svg_4" cy="127.514312" cx="128.000004" stroke-width="1.5" stroke="#ffffff" fill="#96c7f7"/>
  <path stroke-miterlimit="10" stroke-linejoin="round" stroke-linecap="round" stroke-width="4" stroke="#000000" fill="none" id="svg_1" d="m74.737877,95.507332c5.67984,13.025795 47.754791,51.018288 51.752144,51.236244s69.212875,-60.136833 67.319214,-64.262032s-131.9035,-5.428017 -135.480843,-1.302826c-3.576149,4.125206 -2.31488,95.090218 0.841248,97.695854s131.062263,2.822388 133.797173,-1.736282c2.734909,-4.558655 5.67984,-69.906776 2.103668,-73.814018" class="st0"/>
  <path transform="rotate(-92, 127.865, 127.635)" stroke-miterlimit="10" stroke-linejoin="round" stroke-linecap="round" stroke-width="4" stroke="#000000" fill="none" id="svg_2" d="m96.147591,248.943314c69.654152,18.372238 139.993797,-26.582458 154.146187,-94.577637c13.817307,-66.387924 -29.774902,-132.316835 -92.679077,-148.43896c-63.771362,-16.344944 -132.572481,22.426812 -149.89399,88.168223c-26.484291,102.919327 63.890534,148.664215 68.424744,148.655701" class="st0"/>
 </g>
</svg>