<svg width="64" height="64" xmlns="http://www.w3.org/2000/svg">

 <g>
  <title>background</title>
  <rect fill="none" id="canvas_background" height="402" width="582" y="-1" x="-1"/>
 </g>
 <g>
  <title>Layer 1</title>
  <g id="svg_3">
   <path fill="#ff0000" id="svg_1" d="m37.86647,30.66201c-4.504955,0 -7.970312,3.68837 -7.970312,7.953053c0,4.495205 3.465357,7.953053 8.43236,7.953053c4.042912,0 7.508266,-3.34259 7.508266,-7.837791c0,-4.610466 -3.465355,-8.068314 -7.970314,-8.068314z" class="st0"/>
   <path fill="#ff0000" id="svg_2" d="m51.150333,-0.343374l-38.580943,0c-7.277244,0 -13.052834,5.763083 -13.052834,13.024567l0,38.61265c0,7.146221 5.77559,12.909306 13.052834,12.909306l38.696452,0c7.161732,0 12.937321,-5.763084 12.937321,-13.024563l0,-38.497393c0,-7.261484 -5.775589,-13.024567 -13.05283,-13.024567zm3.811886,54.172976c0,0.69157 -0.462048,1.152611 -1.155117,1.152611l-6.93071,0c-0.693069,0 -1.155117,-0.46104 -1.155117,-1.152611c0,-0.922092 -1.039608,-1.498398 -1.84819,-0.922092c-2.310226,1.613663 -4.735981,2.305237 -7.739285,2.305237c-3.927402,0 -7.277246,-1.267883 -10.165043,-3.803638c-3.696375,-3.34259 -5.660076,-7.607273 -5.660076,-12.678783c0,-4.610466 1.848186,-8.759884 5.198029,-11.987211c3.003307,-2.996801 6.699688,-4.495203 10.742599,-4.495203c2.887794,0 5.313549,0.69157 7.277241,2.305235c0.693073,0.576307 1.84819,0 1.84819,-0.922096l0,-10.373548c0,-0.576308 0.346535,-1.037354 0.924095,-1.152617l7.277241,-1.498402c0.693073,-0.115262 1.386143,0.345786 1.386143,1.152616l0,42.070503z" class="st0"/>
  </g>
  <rect id="svg_4" height="21.155868" width="23.537654" y="-1.39638" x="-1.835379" stroke-width="null" stroke="#ff0000" fill="#ff0000"/>
  <rect id="svg_7" height="14.570929" width="8.82662" y="49.321662" x="55.607708" fill-opacity="null" stroke-width="null" stroke="#ff0000" fill="#ff0000"/>
  <rect id="svg_8" height="7.005254" width="15.831874" y="57.02744" x="49.022768" fill-opacity="null" stroke-width="null" stroke="#ff0000" fill="#ff0000"/>
 </g>
</svg>