<svg width="256" height="256" xmlns="http://www.w3.org/2000/svg">

 <g>
  <title>background</title>
  <rect fill="none" id="canvas_background" height="402" width="582" y="-1" x="-1"/>
 </g>
 <g>
  <title>Layer 1</title>
  <ellipse ry="125.533821" rx="127.775496" id="svg_4" cy="126.673667" cx="128.840608" stroke-width="1.5" stroke="#ffffff" fill="#96c7f7"/>
  <path transform="rotate(-15, 127.623, 127.609)" stroke-miterlimit="10" stroke-linejoin="round" stroke-linecap="round" stroke-width="4" stroke="#000000" fill="none" id="svg_1" d="m239.105713,182.856964c32.933746,-64.535461 4.238052,-142.617821 -59.04213,-170.312369c-61.783722,-27.040562 -135.491966,2.281269 -164.776793,60.65766c-29.688098,59.180557 -6.694126,134.497971 53.706053,164.840393c94.691925,46.882523 158.792023,-32.395462 159.761322,-36.840927" class="st0"/>
  <path stroke-miterlimit="10" stroke-linejoin="round" stroke-linecap="round" stroke-width="4" stroke="#000000" fill="none" id="svg_2" d="m134.200745,135.303879c5.514664,-4.602737 14.266479,-9.799164 13.741714,-12.612602c-0.52475,-2.812286 -5.956818,-8.512489 -15.841919,-9.120361c-1.167297,-0.072136 -18.855537,-0.817177 -26.963554,11.761124c-6.605453,10.247398 -3.681702,21.964775 2.888512,29.998314c8.003555,9.784973 23.405777,12.370163 35.715363,5.79245c22.715805,-15.468658 10.024796,-31.444641 11.46904,-35.023232c11.291733,-17.386848 45.341736,-13.294983 47.967911,-15.085472c2.62616,-1.789299 4.727554,-19.048431 2.888504,-22.243866s-35.94371,-28.466801 -80.268768,-26.846607c-37.310234,1.363556 -65.783657,21.860699 -68.542198,25.568203c-2.757336,3.707504 -4.727554,24.545242 -2.101402,26.079086s35.584167,1.661575 38.079124,-0.25544c2.494972,-1.917023 -3.282059,-20.071396 -1.05069,-23.7789c2.23259,-3.707512 19.31105,-7.966118 35.452995,-8.437988c18.678207,-0.546371 38.210312,5.11364 40.180542,8.181358c1.970215,3.067711 -2.10141,16.619324 -1.31308,19.431595c0.78833,2.812271 25.296997,38.224571 24.509888,54.971642c-0.78833,16.747055 -6.960129,23.139099 -9.191513,24.034363c-2.231384,0.895218 -104.166435,1.406097 -106.79261,-0.510941c-2.626144,-1.918182 -6.302986,-15.980682 -5.778244,-27.357468s8.810112,-29.060486 13.303223,-37.329353" class="st0"/>
 </g>
</svg>